<svg width="85" height="39" viewBox="0 0 85 39" fill="none" xmlns="http://www.w3.org/2000/svg">
<rect x="0.5" y="0.5" width="84" height="38" rx="19" stroke="#FF7B10"/>
<mask id="mask0_20_756" style="mask-type:alpha" maskUnits="userSpaceOnUse" x="12" y="11" width="17" height="17">
<rect x="12" y="11" width="17" height="17" fill="#D9D9D9"/>
</mask>
<g mask="url(#mask0_20_756)">
<path d="M19.7917 20.2084H15.5417V18.7917H19.7917V14.5417H21.2084V18.7917H25.4584V20.2084H21.2084V24.4584H19.7917V20.2084Z" fill="#FF7B10"/>
</g>
<path d="M35.3034 17.8191V16.7666H37.1805V13.9613H38.4816V21.7017H37.1805V17.8191H35.3034ZM32.8586 18.0262C32.3904 19.1367 31.512 20.0318 30.2564 20.4627L29.5852 19.4061C31.2716 18.855 32.1749 17.471 32.1749 16.0622V15.7762H29.9664V14.7238H35.6929V15.7762H33.5009V16.0704C33.5009 17.3425 34.3545 18.6602 35.9912 19.203L35.3407 20.2348C34.1556 19.837 33.3186 19.0249 32.8586 18.0262ZM32.8338 21.018V23.2804H38.7468V24.337H31.5327V21.018H32.8338ZM47.8582 24.5359V13.953H49.093V24.5359H47.8582ZM44.3278 18.0221H45.7159V14.1519H46.9383V24.0262H45.7159V19.0953H44.3278V18.0221ZM43.2173 16.8536V17.1851C43.2173 18.826 43.8886 20.4751 45.372 21.2749L44.6469 22.232C43.6565 21.7141 42.9894 20.7818 42.6123 19.6671C42.2394 20.8688 41.5723 21.8964 40.5778 22.4807L39.8195 21.4986C41.3195 20.6285 41.9784 18.8591 41.9866 17.1851V16.8536H40.18V15.8011H41.9866V14.326H43.2132V15.8011H44.9866V16.8536H43.2173ZM55.8177 20.1354V22.1989H60.0359V23.2638H50.3522V22.1989H54.5249V20.1354H51.4171V14.6533H52.7224V16.3854H57.6285V14.6533H58.9254V20.1354H55.8177ZM57.6285 17.4296H52.7224V19.087H57.6285V17.4296ZM68.2523 24.5359V13.953H69.5658V24.5359H68.2523ZM61.3324 15.076H66.4084C66.4042 18.2293 65.1819 20.9061 61.4774 22.6671L60.7937 21.6229C63.5658 20.3052 64.8504 18.5193 65.0824 16.1077H61.3324V15.076Z" fill="#FF7B10"/>
</svg>
