<svg width="24" height="25" viewBox="0 0 24 25" fill="none" xmlns="http://www.w3.org/2000/svg">
<mask id="mask0_59_555" style="mask-type:alpha" maskUnits="userSpaceOnUse" x="0" y="0" width="24" height="25">
<rect y="0.5" width="24" height="24" fill="#D9D9D9"/>
</mask>
<g mask="url(#mask0_59_555)">
<path d="M22.1333 24.5L13.7333 16.1C13.0667 16.6333 12.3 17.0556 11.4333 17.3667C10.5667 17.6778 9.64444 17.8333 8.66667 17.8333C6.24444 17.8333 4.19444 16.9944 2.51667 15.3167C0.838889 13.6389 0 11.5889 0 9.16667C0 6.74444 0.838889 4.69444 2.51667 3.01667C4.19444 1.33889 6.24444 0.5 8.66667 0.5C11.0889 0.5 13.1389 1.33889 14.8167 3.01667C16.4944 4.69444 17.3333 6.74444 17.3333 9.16667C17.3333 10.1444 17.1778 11.0667 16.8667 11.9333C16.5556 12.8 16.1333 13.5667 15.6 14.2333L24 22.6333L22.1333 24.5ZM8.66667 15.1667C10.3333 15.1667 11.75 14.5833 12.9167 13.4167C14.0833 12.25 14.6667 10.8333 14.6667 9.16667C14.6667 7.5 14.0833 6.08333 12.9167 4.91667C11.75 3.75 10.3333 3.16667 8.66667 3.16667C7 3.16667 5.58333 3.75 4.41667 4.91667C3.25 6.08333 2.66667 7.5 2.66667 9.16667C2.66667 10.8333 3.25 12.25 4.41667 13.4167C5.58333 14.5833 7 15.1667 8.66667 15.1667Z" fill="#FF7B10"/>
</g>
</svg>
