<svg width="124" height="39" viewBox="0 0 124 39" fill="none" xmlns="http://www.w3.org/2000/svg">
<rect width="124" height="39" rx="19.5" fill="#FF7B10"/>
<path d="M23.0621 19.9171V21.8812H27.4047V22.6602H17.866V21.8812H22.1505V19.9171H19.0594V16.7017H25.2914V15.0691H19.0345V14.3066H26.203V17.4558H19.971V19.1547H26.4434V19.9171H23.0621ZM35.5465 15.6906V15.4088H29.273V14.6464H36.4498V15.6906C36.4498 17 36.4498 18.4834 36.0603 20.7459L35.1238 20.6547C35.5465 18.5249 35.5465 16.9669 35.5465 15.6906ZM28.2371 22.4199V21.6492H37.7343V22.4199H28.2371ZM46.2905 13.5442H47.2104V21.1602H46.2905V13.5442ZM41.5833 19.3867C40.0253 19.395 38.8485 18.3425 38.8485 16.826C38.8485 15.326 40.0253 14.2735 41.5833 14.2735C43.1413 14.2735 44.3099 15.326 44.3099 16.826C44.3099 18.3425 43.1413 19.395 41.5833 19.3867ZM39.7518 16.826C39.7436 17.8619 40.5309 18.5829 41.5833 18.5829C42.6192 18.5829 43.4148 17.8619 43.4148 16.826C43.4148 15.8066 42.6192 15.0773 41.5833 15.0773C40.5309 15.0773 39.7436 15.8066 39.7518 16.826ZM41.401 20.3812V22.9586H47.5336V23.721H40.4811V20.3812H41.401Z" fill="white"/>
<path d="M57 12.5V25.5" stroke="white"/>
<path d="M73.3048 23.953V13.5359H74.2247V23.953H73.3048ZM69.6252 14.8204H72.3434V15.5663H65.9622V14.8204H68.7053V13.5442H69.6252V14.8204ZM69.6252 19.9876V21.0939C70.6363 21.0483 71.6556 20.9696 72.6169 20.8453L72.6915 21.5497C70.3628 21.9227 67.8103 21.9558 65.8794 21.9558L65.7385 21.1768C66.6294 21.1685 67.6487 21.1602 68.7053 21.1271V19.9959C67.4539 19.8591 66.6418 19.1464 66.6501 18.1022C66.6418 16.9254 67.6446 16.163 69.1446 16.163C70.6528 16.163 71.6722 16.9254 71.6722 18.1022C71.6722 19.134 70.8642 19.8467 69.6252 19.9876ZM67.512 18.1022C67.5037 18.8232 68.1832 19.2956 69.1446 19.2873C70.1225 19.2956 70.7937 18.8232 70.7937 18.1022C70.7937 17.3729 70.1225 16.884 69.1446 16.884C68.1832 16.884 67.5037 17.3729 67.512 18.1022ZM81.5626 20.3729V19.7017H83.709V13.5442H84.6372V21.4586H83.709V20.3729H81.5626ZM79.4162 17.5884C77.8748 17.5884 76.8306 16.8923 76.8306 15.7818C76.8306 14.6878 77.8748 13.9669 79.4162 13.9669C80.9411 13.9669 81.9853 14.6878 81.9935 15.7818C81.9853 16.8923 80.9411 17.5884 79.4162 17.5884ZM79.4162 14.663C78.3969 14.6547 77.7007 15.1105 77.709 15.7818C77.7007 16.4613 78.3969 16.9006 79.4162 16.9006C80.4024 16.9006 81.1068 16.4613 81.1151 15.7818C81.1068 15.1105 80.4024 14.6547 79.4162 14.663ZM79.9714 21.0939H79.0516V19.0801C77.9991 19.1215 76.9922 19.1257 76.1179 19.1215L75.9935 18.3674C77.9328 18.3591 80.5433 18.3425 82.7726 18.0608L82.8389 18.732C81.9065 18.8812 80.9328 18.9765 79.9714 19.0345V21.0939ZM78.4134 20.6796V22.9586H84.8941V23.721H77.4935V20.6796H78.4134ZM94.4862 17.7707H96.1768V18.5497H94.4862V23.9448H93.5663V13.5359H94.4862V17.7707ZM86.9779 14.6547H91.7928C91.7845 17.605 90.4006 20.2901 87.0028 21.9641L86.489 21.2431C89.1823 19.9047 90.6492 17.8992 90.8564 15.4254H86.9779V14.6547ZM104.476 13.5359H105.396V19.1215H104.476V13.5359ZM99.7689 14.0414C101.352 14.0331 102.495 15.011 102.495 16.4365C102.495 17.8536 101.352 18.8315 99.7689 18.8232C98.186 18.8315 97.0341 17.8536 97.0341 16.4365C97.0341 15.011 98.186 14.0331 99.7689 14.0414ZM99.7689 14.8204C98.6998 14.8122 97.9291 15.4834 97.9374 16.4365C97.9291 17.3895 98.6998 18.0608 99.7689 18.0608C100.83 18.0608 101.6 17.3895 101.6 16.4365C101.6 15.4834 100.83 14.8122 99.7689 14.8204ZM98.6501 19.6519H99.5534V20.9199H104.484V19.6519H105.396V23.8122H98.6501V19.6519ZM99.5534 21.6575V23.058H104.484V21.6575H99.5534Z" fill="white"/>
</svg>
